# xmcd
#
# Track frame offsets:
#	150
#	9455
#	33376
#	44715
#	91962
#	109122
#	131727
#	147115
#	178729
#	180951
#	195012
#	198879
#	205625
#	207277
#	209962
#	215165
#	216311
#	223659
#	225525
#
# Disc length: 3051 seconds
# Revision: 0
# Processed by: cddbd v1.5.2PL0 Copyright (c) Steve Scherf et al.
# Submitted via: dBpowerAMP V12.0
#
DISCID=210be913
DTITLE=Hale Dwoskin - The Inner Circle Retreat 02 CD 18
DYEAR=2007
DGENRE=Speech
TTITLE0=Participant Gain
TTITLE1=Teaching Your Children - Spiritual Beliefs
TTITLE2=There Is No Creator
TTITLE3=Act As Though There Is a Chooser - Creating Reality
TTITLE4=Introduction to Relationships
TTITLE5=Lesters Way of Teaching
TTITLE6=How the Mind Works - Holistic Releasing
TTITLE7=Release on Relationships
TTITLE8=Why Do You Have So Many Products
TTITLE9=Hales Releasing Biography
TTITLE10=STA Audio Programs
TTITLE11=The Nine-Day-Retreats - The Inner Circle
TTITLE12=Stay Concentrated with the Inner Circle
TTITLE13=Recommended Audio Programs
TTITLE14=The Casselton DVD Set
TTITLE15=How to Introduce the Sedona Method to Others
TTITLE16=The New Basic Audio Program
TTITLE17=Retreat Schedule
TTITLE18=Prerequisites for the Instructor Training
EXTD=
EXTT0=
EXTT1=
EXTT2=
EXTT3=
EXTT4=
EXTT5=
EXTT6=
EXTT7=
EXTT8=
EXTT9=
EXTT10=
EXTT11=
EXTT12=
EXTT13=
EXTT14=
EXTT15=
EXTT16=
EXTT17=
EXTT18=
PLAYORDER=
